<?xml version="1.0" encoding="utf-8"?>
<!-- Generator: Adobe Illustrator 23.0.6, SVG Export Plug-In . SVG Version: 6.00 Build 0)  -->
<svg version="1.1" id="Layer_1" xmlns="http://www.w3.org/2000/svg" xmlns:xlink="http://www.w3.org/1999/xlink" x="0px" y="0px"
	 viewBox="0 0 24 24" style="enable-background:new 0 0 24 24;" xml:space="preserve">
<style type="text/css">
	.st0{fill:#FFFFFF;}
</style>
<path class="st0" d="M43.5-22.3c2,0,3.5-1.5,3.5-3.5s-1.5-3.5-3.5-3.5S40-27.7,40-25.8c0,0.1,0,0.3,0,0.5l-6.5,3.7
	c-0.6-0.4-1.3-0.7-2.1-0.7c-2,0-3.5,1.5-3.5,3.5s1.5,3.5,3.5,3.5c0.8,0,1.5-0.2,2.1-0.7l6.5,3.8c0,0.1,0,0.3,0,0.4
	c0,1.9,1.5,3.4,3.4,3.4s3.4-1.5,3.4-3.4c0-1.9-1.4-3.4-3.3-3.4c-0.7,0-1.4,0.2-2,0.7l-6.5-3.8c0-0.2,0-0.3,0-0.5c0-0.1,0-0.3,0-0.5
	l6.5-3.7C42-22.5,42.7-22.3,43.5-22.3z"/>
<path class="st0" d="M18,8.4c1.9,0,3.4-1.5,3.4-3.4S19.9,1.7,18,1.7s-3.4,1.5-3.4,3.4c0,0.1,0,0.3,0,0.5L8,9.4
	C7.5,8.9,6.8,8.7,6,8.7c-1.9,0-3.4,1.5-3.4,3.4s1.5,3.4,3.4,3.4c0.8,0,1.5-0.3,2-0.7l6.6,3.9c0,0.2,0,0.3,0,0.4
	c0,1.8,1.5,3.3,3.3,3.3s3.3-1.5,3.3-3.3c0-1.8-1.4-3.3-3.2-3.3c-0.7,0-1.4,0.2-2,0.7l-6.6-3.9c0-0.2,0-0.4,0-0.5c0-0.1,0-0.3,0-0.5
	L16,7.7C16.5,8.2,17.2,8.4,18,8.4z"/>
<path class="st0" d="M97.8-15.7c-0.7,0-1.4,0.2-2.1,0.6l-5.9-3.5c0-0.1,0-0.1,0-0.2c0-0.1,0-0.1,0-0.2l5.9-3.4
	c0.6,0.4,1.3,0.6,2.1,0.6c2.2,0,4-1.8,4-4s-1.8-4-4-4s-4,1.8-4,4c0,0.1,0,0.1,0,0.2l-5.9,3.4c-0.6-0.4-1.3-0.6-2.1-0.6
	c-2.2,0-4,1.8-4,4s1.8,4,4,4c0.8,0,1.5-0.2,2.1-0.6l5.9,3.5c0,0,0,0.1,0,0.1c0,2.2,1.7,3.9,3.9,3.9s3.9-1.7,3.9-3.9
	C101.6-14,100-15.7,97.8-15.7z"/>
<path class="st0" d="M71-22c2.1,0,3.8-1.6,3.8-3.8s-1.6-3.8-3.8-3.8s-3.8,1.6-3.8,3.8c0,0.1,0,0.2,0,0.3l-6.2,3.6
	c-0.6-0.4-1.3-0.6-2.1-0.6c-2.1,0-3.8,1.6-3.8,3.8S56.9-15,59-15c0.8,0,1.5-0.2,2.1-0.6l6.2,3.7c0,0.1,0,0.2,0,0.2
	c0,2,1.6,3.6,3.6,3.6s3.6-1.6,3.6-3.6c0-2-1.6-3.6-3.5-3.6c-0.7,0-1.4,0.2-2.1,0.6l-6.2-3.7c0-0.1,0-0.2,0-0.3c0-0.1,0-0.2,0-0.3
	l6.2-3.6C69.5-22.3,70.2-22,71-22z"/>
</svg>
